<svg xmlns="http://www.w3.org/2000/svg" width="10.295" height="19.006" viewBox="0 0 10.295 19.006"><defs><style>.a{fill:#33f;}</style></defs><path class="a" d="M124.856,3.168h2.376a.4.4,0,0,0,.4-.4V.4a.4.4,0,0,0-.4-.4h-2.376A4.36,4.36,0,0,0,120.5,4.355V7.127h-2.772a.4.4,0,0,0-.4.4V9.9a.4.4,0,0,0,.4.4H120.5V18.61a.4.4,0,0,0,.4.4h2.376a.4.4,0,0,0,.4-.4V10.295h2.772a.4.4,0,0,0,.375-.271l.792-2.376a.4.4,0,0,0-.375-.521h-3.564V4.355A1.188,1.188,0,0,1,124.856,3.168Z" transform="translate(-117.333)"/></svg>