<svg xmlns="http://www.w3.org/2000/svg" width="10.295" height="20.006" viewBox="0 0 10.295 20.006"><defs><style>.a{fill:#33f;}</style></defs><path class="a" d="M124.856,3.334h2.376a.407.407,0,0,0,.4-.417V.417a.407.407,0,0,0-.4-.417h-2.376A4.479,4.479,0,0,0,120.5,4.585V7.5h-2.772a.407.407,0,0,0-.4.417v2.5a.407.407,0,0,0,.4.417H120.5v8.752a.407.407,0,0,0,.4.417h2.376a.407.407,0,0,0,.4-.417V10.836h2.772a.4.4,0,0,0,.375-.285l.792-2.5a.422.422,0,0,0-.251-.527.378.378,0,0,0-.125-.021h-3.564V4.585A1.22,1.22,0,0,1,124.856,3.334Z" transform="translate(-117.333)"/></svg>