<svg xmlns="http://www.w3.org/2000/svg" width="22.826" height="22.826" viewBox="0 0 22.826 22.826"><defs><style>.a{fill:#a5b7c5;}</style></defs><g transform="translate(0)"><path class="a" d="M19.483,3.343A11.413,11.413,0,0,0,3.343,19.483,11.413,11.413,0,0,0,19.483,3.343ZM11.414,19.26a.713.713,0,0,1,0-1.427h0a.713.713,0,0,1,0,1.427Zm2.269-7.324a5.279,5.279,0,0,0-1.556,3.758.713.713,0,1,1-1.427,0,6.7,6.7,0,0,1,1.974-4.766A4.191,4.191,0,0,0,13.91,7.944a2.24,2.24,0,0,0-2.237-2.237H11.51A2.24,2.24,0,0,0,9.273,7.944V8.2a.713.713,0,0,1-1.427,0v-.26A3.668,3.668,0,0,1,11.51,4.28h.163a3.668,3.668,0,0,1,3.664,3.664A5.608,5.608,0,0,1,13.683,11.935Z" transform="translate(0 0)"/></g></svg>