<svg xmlns="http://www.w3.org/2000/svg" width="26.402" height="22.992" viewBox="0 0 26.402 22.992"><defs><style>.a{fill:#166086;}.b{fill:#939598;}</style></defs><g transform="translate(-0.053 0.149)"><g transform="translate(0.053 -0.149)"><path class="a" d="M25.3,35.326A12.361,12.361,0,0,1,1.776,27.965a1.523,1.523,0,1,0-1.2-.359,13.6,13.6,0,0,0,25.876,8.176Z" transform="translate(-0.053 -21.416)"/><path class="b" d="M22.179,15.967a11.026,11.026,0,0,0,15.437,1.852l-.773-.981A9.759,9.759,0,0,1,23.4,2.816a1.531,1.531,0,1,0-.89-.878,11.019,11.019,0,0,0-.329,14.028Z" transform="translate(-17.048 0.149)"/><path class="a" d="M38.391,10.829a8.423,8.423,0,0,0,9.5,7.121l-.178-1.234a7.165,7.165,0,0,1-3.772-13.7,1.524,1.524,0,1,0-.352-1.659,1.558,1.558,0,0,0-.1.5A8.424,8.424,0,0,0,38.391,10.829Z" transform="translate(-32.941 -0.323)"/></g></g></svg>