<svg xmlns="http://www.w3.org/2000/svg" width="15.289" height="17.397" viewBox="0 0 15.289 17.397"><defs><style>.a{fill:#aeaeae;}</style></defs><g transform="translate(-31.017)"><g transform="translate(31.017 0)"><path class="a" d="M46.024,14.393a3.161,3.161,0,0,1-1.757-2.843V6.626a5.614,5.614,0,0,0-5.1-5.583V.51a.51.51,0,0,0-1.019,0v.533a5.614,5.614,0,0,0-5.1,5.583V11.55A3.161,3.161,0,0,1,31.3,14.393a.51.51,0,0,0,.228.966h5.606v.51a1.529,1.529,0,0,0,3.058,0v-.51H45.8A.51.51,0,0,0,46.024,14.393Zm-6.854,1.475a.51.51,0,0,1-1.019,0v-.51h1.019Zm-6.157-1.529a4.2,4.2,0,0,0,1.06-2.789V6.626a4.587,4.587,0,0,1,9.174,0V11.55a4.2,4.2,0,0,0,1.06,2.789Z" transform="translate(-31.017 0)"/></g></g></svg>