<svg xmlns="http://www.w3.org/2000/svg" width="21.377" height="19.844" viewBox="0 0 21.377 19.844"><defs><style>.a{fill:#a5b7c5;}</style></defs><g transform="translate(0 -16.069)"><path class="a" d="M173.2,22.568a7.1,7.1,0,0,0-2.748-2.7,7.732,7.732,0,0,1-2.029-1.716l-.1-.13a3.359,3.359,0,0,1-.707-1.267.749.749,0,0,0-.808-.658.763.763,0,0,0-.71.762v13.6a4.416,4.416,0,0,0-2.29-.626c-2.1,0-3.816,1.369-3.816,3.053s1.713,3.053,3.816,3.053,3.816-1.369,3.816-3.053v-8.9a5.494,5.494,0,0,1,3.538,4.16,4.128,4.128,0,0,1-.295.417.762.762,0,0,0,1.145,1.007,7.79,7.79,0,0,0,1.716-4.485A5.066,5.066,0,0,0,173.2,22.568Z" transform="translate(-152.368 -0.023)"/><path class="a" d="M.763,17.6H9.922a.763.763,0,1,0,0-1.526H.763a.763.763,0,1,0,0,1.526Z"/><path class="a" d="M.763,113.6H9.922a.763.763,0,0,0,0-1.526H.763a.763.763,0,0,0,0,1.526Z" transform="translate(0 -91.421)"/><path class="a" d="M5.343,208.069H.763a.763.763,0,1,0,0,1.526H5.343a.763.763,0,1,0,0-1.526Z" transform="translate(0 -182.841)"/><path class="a" d="M5.343,304.069H.763a.763.763,0,1,0,0,1.526H5.343a.763.763,0,1,0,0-1.526Z" transform="translate(0 -274.262)"/></g></svg>