<svg xmlns="http://www.w3.org/2000/svg" width="21.519" height="21.243" viewBox="0 0 21.519 21.243"><defs><style>.a{fill:#a5b7c5;}</style></defs><g transform="translate(0 -2.612)"><g transform="translate(0 2.612)"><g transform="translate(0 0)"><path class="a" d="M167.184,225.245l3.614-2.124L167.184,221Z" transform="translate(-158.356 -209.464)"/><path class="a" d="M19.036,112.327H2.483A2.483,2.483,0,0,0,0,114.81v10.484a2.483,2.483,0,0,0,2.483,2.483H19.036a2.483,2.483,0,0,0,2.483-2.483V114.81A2.483,2.483,0,0,0,19.036,112.327Zm-5.062,8.1a.524.524,0,0,1-.235.235l-5.269,3.09a.469.469,0,0,1-.276.083l-.248-.083a.5.5,0,0,1-.221-.469V117.1a.5.5,0,0,1,.221-.469.469.469,0,0,1,.524,0l5.269,3.09A.524.524,0,0,1,13.974,120.424Z" transform="translate(0 -106.533)"/><path class="a" d="M43.915,61.186H59.778a.552.552,0,0,0,0-1.1H43.915a.552.552,0,1,0,0,1.1Z" transform="translate(-41.073 -57.047)"/><path class="a" d="M88.323,3.716H99.468a.552.552,0,1,0,0-1.1H88.323a.552.552,0,0,0,0,1.1Z" transform="translate(-83.136 -2.612)"/></g></g></g></svg>